<?xml version="1.0" encoding="UTF-8"?>
<svg id="Layer_1" data-name="Layer 1" xmlns="http://www.w3.org/2000/svg" version="1.1" viewBox="0 0 245.78 231.81">
  <defs>
    <style>
      .cls-1 {
        fill: #72cc72;
      }

      .cls-1, .cls-2, .cls-3 {
        stroke-width: 0px;
      }

      .cls-4 {
        mix-blend-mode: multiply;
      }

      .cls-2 {
        fill: #d8d9da;
      }

      .cls-3 {
        fill: #83e583;
      }

      .cls-5 {
        isolation: isolate;
      }
    </style>
  </defs>
  <g class="cls-5">
    <g id="Layer_1-2" data-name="Layer 1">
      <g>
        <g class="cls-4">
          <path class="cls-2" d="M.05,223.69s93.44,5.86,115.1,7.03c63.63,3.43,121.8-1.94,130.63-6.19,0,0-13.27-31.72-15.12-68.95-3.32-66.98-7.02-155.58-7.02-155.58L14.79,7.1.05,223.69Z"/>
        </g>
        <path class="cls-3" d="M.05,223.69L0,.05l223.64-.05s2.64,76.5.03,143.51c-1.98,51.07-28.62,64.44-28.62,64.44,0,0-50.61,15.71-94.69,15.72-44.08,0-100.31.02-100.31.02Z"/>
        <rect class="cls-1" x="0" y=".03" width="223.64" height="30.11"/>
      </g>
    </g>
  </g>
</svg>